<svg id="visual" viewBox="0 0 900 120" width="900" height="120" xmlns="http://www.w3.org/2000/svg" xmlns:xlink="http://www.w3.org/1999/xlink" version="1.1">
<path d="M0 35L21.5 36.3C43 37.7 86 40.3 128.8 39.8C171.7 39.3 214.3 35.7 257.2 34.7C300 33.7 343 35.3 385.8 37.7C428.7 40 471.3 43 514.2 43.3C557 43.7 600 41.3 642.8 40.5C685.7 39.7 728.3 40.3 771.2 39C814 37.7 857 34.3 878.5 32.7L900 31L900 0L878.5 0C857 0 814 0 771.2 0C728.3 0 685.7 0 642.8 0C600 0 557 0 514.2 0C471.3 0 428.7 0 385.8 0C343 0 300 0 257.2 0C214.3 0 171.7 0 128.8 0C86 0 43 0 21.5 0L0 0Z" fill="#ff87ab"></path>
<path d="M0 23L21.5 24.3C43 25.7 86 28.3 128.8 30.3C171.7 32.3 214.3 33.7 257.2 33.2C300 32.7 343 30.3 385.8 29C428.7 27.7 471.3 27.3 514.2 28.5C557 29.7 600 32.3 642.8 33.7C685.7 35 728.3 35 771.2 35.7C814 36.3 857 37.7 878.5 38.3L900 39L900 0L878.5 0C857 0 814 0 771.2 0C728.3 0 685.7 0 642.8 0C600 0 557 0 514.2 0C471.3 0 428.7 0 385.8 0C343 0 300 0 257.2 0C214.3 0 171.7 0 128.8 0C86 0 43 0 21.5 0L0 0Z" fill="#ff7da4"></path>
<path d="M0 21L21.5 22.7C43 24.3 86 27.7 128.8 28.3C171.7 29 214.3 27 257.2 26.2C300 25.3 343 25.7 385.8 26.5C428.7 27.3 471.3 28.7 514.2 29.2C557 29.7 600 29.3 642.8 28.3C685.7 27.3 728.3 25.7 771.2 24.8C814 24 857 24 878.5 24L900 24L900 0L878.5 0C857 0 814 0 771.2 0C728.3 0 685.7 0 642.8 0C600 0 557 0 514.2 0C471.3 0 428.7 0 385.8 0C343 0 300 0 257.2 0C214.3 0 171.7 0 128.8 0C86 0 43 0 21.5 0L0 0Z" fill="#ff739d"></path>
<path d="M0 20L21.5 18.3C43 16.7 86 13.3 128.8 13.5C171.7 13.7 214.3 17.3 257.2 18.8C300 20.3 343 19.7 385.8 19.5C428.7 19.3 471.3 19.7 514.2 20C557 20.3 600 20.7 642.8 20C685.7 19.3 728.3 17.7 771.2 17.7C814 17.7 857 19.3 878.5 20.2L900 21L900 0L878.5 0C857 0 814 0 771.2 0C728.3 0 685.7 0 642.8 0C600 0 557 0 514.2 0C471.3 0 428.7 0 385.8 0C343 0 300 0 257.2 0C214.3 0 171.7 0 128.8 0C86 0 43 0 21.5 0L0 0Z" fill="#ff6896"></path>
<path d="M0 5L21.5 5.5C43 6 86 7 128.8 7.2C171.7 7.3 214.3 6.7 257.2 7.5C300 8.3 343 10.7 385.8 11C428.7 11.3 471.3 9.7 514.2 8.8C557 8 600 8 642.8 8.8C685.7 9.7 728.3 11.3 771.2 11.3C814 11.3 857 9.7 878.5 8.8L900 8L900 0L878.5 0C857 0 814 0 771.2 0C728.3 0 685.7 0 642.8 0C600 0 557 0 514.2 0C471.3 0 428.7 0 385.8 0C343 0 300 0 257.2 0C214.3 0 171.7 0 128.8 0C86 0 43 0 21.5 0L0 0Z" fill="#ff5d8f"></path></svg>