<svg id="visual" viewBox="0 0 900 50" width="900" height="50" xmlns="http://www.w3.org/2000/svg" xmlns:xlink="http://www.w3.org/1999/xlink" version="1.1"><rect x="0" y="0" width="900" height="50" fill="#FADDE1"></rect><path d="M0 15L21.5 14.5C43 14 86 13 128.8 12.8C171.7 12.7 214.3 13.3 257.2 13.8C300 14.3 343 14.7 385.8 14.3C428.7 14 471.3 13 514.2 13.7C557 14.3 600 16.7 642.8 17.8C685.7 19 728.3 19 771.2 18.8C814 18.7 857 18.3 878.5 18.2L900 18L900 0L878.5 0C857 0 814 0 771.2 0C728.3 0 685.7 0 642.8 0C600 0 557 0 514.2 0C471.3 0 428.7 0 385.8 0C343 0 300 0 257.2 0C214.3 0 171.7 0 128.8 0C86 0 43 0 21.5 0L0 0Z" fill="#ff87ab"></path><path d="M0 12L21.5 12.7C43 13.3 86 14.7 128.8 14.3C171.7 14 214.3 12 257.2 11.3C300 10.7 343 11.3 385.8 12C428.7 12.7 471.3 13.3 514.2 14C557 14.7 600 15.3 642.8 14.8C685.7 14.3 728.3 12.7 771.2 12.2C814 11.7 857 12.3 878.5 12.7L900 13L900 0L878.5 0C857 0 814 0 771.2 0C728.3 0 685.7 0 642.8 0C600 0 557 0 514.2 0C471.3 0 428.7 0 385.8 0C343 0 300 0 257.2 0C214.3 0 171.7 0 128.8 0C86 0 43 0 21.5 0L0 0Z" fill="#ff7da4"></path><path d="M0 12L21.5 11.8C43 11.7 86 11.3 128.8 11.2C171.7 11 214.3 11 257.2 11C300 11 343 11 385.8 10.3C428.7 9.7 471.3 8.3 514.2 8.3C557 8.3 600 9.7 642.8 10.3C685.7 11 728.3 11 771.2 10.2C814 9.3 857 7.7 878.5 6.8L900 6L900 0L878.5 0C857 0 814 0 771.2 0C728.3 0 685.7 0 642.8 0C600 0 557 0 514.2 0C471.3 0 428.7 0 385.8 0C343 0 300 0 257.2 0C214.3 0 171.7 0 128.8 0C86 0 43 0 21.5 0L0 0Z" fill="#ff739d"></path><path d="M0 8L21.5 8C43 8 86 8 128.8 8C171.7 8 214.3 8 257.2 7.5C300 7 343 6 385.8 5.5C428.7 5 471.3 5 514.2 5.3C557 5.7 600 6.3 642.8 6.5C685.7 6.7 728.3 6.3 771.2 6.5C814 6.7 857 7.3 878.5 7.7L900 8L900 0L878.5 0C857 0 814 0 771.2 0C728.3 0 685.7 0 642.8 0C600 0 557 0 514.2 0C471.3 0 428.7 0 385.8 0C343 0 300 0 257.2 0C214.3 0 171.7 0 128.8 0C86 0 43 0 21.5 0L0 0Z" fill="#ff6896"></path><path d="M0 5L21.5 4.5C43 4 86 3 128.8 2.8C171.7 2.7 214.3 3.3 257.2 3.7C300 4 343 4 385.8 3.7C428.7 3.3 471.3 2.7 514.2 2.5C557 2.3 600 2.7 642.8 2.7C685.7 2.7 728.3 2.3 771.2 2.5C814 2.7 857 3.3 878.5 3.7L900 4L900 0L878.5 0C857 0 814 0 771.2 0C728.3 0 685.7 0 642.8 0C600 0 557 0 514.2 0C471.3 0 428.7 0 385.8 0C343 0 300 0 257.2 0C214.3 0 171.7 0 128.8 0C86 0 43 0 21.5 0L0 0Z" fill="#ff5d8f"></path></svg>